<?xml version="1.0" encoding="UTF-8"?>
<svg width="90px" height="95px" viewBox="0 0 90 95" version="1.1" xmlns="http://www.w3.org/2000/svg" xmlns:xlink="http://www.w3.org/1999/xlink">
    <defs></defs>
    <g id="Artboard-1" stroke="none" stroke-width="1" fill="none" fill-rule="evenodd">
        <path d="M54.7729,38.0797 L54.7839,38.0767 L54.7729,38.0797 Z M80.5609,83.7397 L43.0669,94.6547 C35.8459,96.7577 28.1389,94.3247 23.4339,88.4577 C18.7289,82.5907 18.0279,74.5397 21.6479,67.9477 L34.8649,43.8757 L17.3519,48.9747 C10.1619,51.0667 2.6369,46.9357 0.5439,39.7457 C-1.5491,32.5567 2.5829,25.0317 9.7719,22.9377 L47.1939,12.0437 C54.4149,9.9417 62.1199,12.3737 66.8259,18.2397 C71.5309,24.1057 72.2339,32.1567 68.6149,38.7487 L55.3969,62.8227 L72.9809,57.7037 C80.1699,55.6107 87.6959,59.7427 89.7899,66.9317 C91.8819,74.1207 87.7509,81.6457 80.5609,83.7397 Z" id="Fill-1" fill="#310074"></path>
        <path d="M54.7729,26.7808 L54.7839,26.7778 L54.7729,26.7808 Z M80.5609,72.4408 L43.0669,83.3558 C35.8459,85.4588 28.1389,83.0258 23.4339,77.1588 C18.7289,71.2918 18.0279,63.2408 21.6479,56.6488 L34.8649,32.5768 L17.3519,37.6758 C10.1619,39.7688 2.6369,35.6368 0.5439,28.4478 C-1.5491,21.2578 2.5829,13.7328 9.7719,11.6398 L47.1939,0.7448 C54.4149,-1.3572 62.1199,1.0748 66.8259,6.9408 C71.5309,12.8068 72.2339,20.8578 68.6149,27.4498 L55.3969,51.5238 L72.9809,46.4048 C80.1699,44.3118 87.6959,48.4438 89.7899,55.6338 C91.8819,62.8218 87.7509,70.3478 80.5609,72.4408 Z" id="Fill-4" fill="#FF4364"></path>
    </g>
</svg>