<?xml version="1.0" encoding="UTF-8"?>
<svg width="24px" height="24px" viewBox="0 0 24 24" version="1.1" xmlns="http://www.w3.org/2000/svg" xmlns:xlink="http://www.w3.org/1999/xlink">
    
    <title>Icon_Delete</title>
    
    <defs></defs>
    <g id="Icon_Delete" stroke="none" stroke-width="1" fill="none" fill-rule="evenodd">
        <path d="M10.0853529,5 C10.2912711,4.41740381 10.8468906,4 11.5,4 L12.5,4 C13.1531094,4 13.7087289,4.41740381 13.9146471,5 L17,5 C17.5522847,5 18,5.44771525 18,6 C18,6.55228475 17.5522847,7 17,7 L7,7 C6.44771525,7 6,6.55228475 6,6 C6,5.44771525 6.44771525,5 7,5 L10.0853529,5 Z M8,8 L16,8 C17.1045695,8 18,8.8954305 18,10 L18,18 C18,19.1045695 17.1045695,20 16,20 L8,20 C6.8954305,20 6,19.1045695 6,18 L6,10 C6,8.8954305 6.8954305,8 8,8 Z M10,10 C9.44771525,10 9,10.4477153 9,11 L9,16 C9,16.5522847 9.44771525,17 10,17 C10.5522847,17 11,16.5522847 11,16 L11,11 C11,10.4477153 10.5522847,10 10,10 Z M14,10 C13.4477153,10 13,10.4477153 13,11 L13,16 C13,16.5522847 13.4477153,17 14,17 C14.5522847,17 15,16.5522847 15,16 L15,11 C15,10.4477153 14.5522847,10 14,10 Z" id="Combined-Shape" fill="#FFFFFF"></path>
    </g>
</svg>