<?xml version="1.0" encoding="UTF-8"?>
<svg width="24px" height="24px" viewBox="0 0 24 24" version="1.1" xmlns="http://www.w3.org/2000/svg" xmlns:xlink="http://www.w3.org/1999/xlink">
    
    <title>Icon_Fill</title>
    
    <defs></defs>
    <g id="Icon_Fill" stroke="none" stroke-width="1" fill="none" fill-rule="evenodd">
        <path d="M14.1066919,6.11453953 L10.4710665,6.11453953 L10.4710665,10.4069444 L22.0347222,10.4069444 L22.9989177,11.37114 C23.7799663,12.1521885 23.7799663,13.4185185 22.9989177,14.1995671 L16.3137085,20.8847763 C15.5326599,21.6658249 14.26633,21.6658249 13.4852814,20.8847763 L3.80025253,11.1997475 L13.3138889,1.68611112 L17.7423173,6.11453953 L14.1066919,6.11453953 L10.4710665,6.11453953 L10.4710665,8.35692512 L22.0347222,8.35692512 L22.0347222,6.11453953 L14.1066919,6.11453953 Z M3,19 C1.8954305,19 1,17.9994002 1,16.7650978 C1,15.5307954 3,13 3,13 C3,13 5,15.5307954 5,16.7650978 C5,17.9994002 4.1045695,19 3,19 Z" id="Combined-Shape" fill="#FFFFFF"></path>
    </g>
</svg>