<?xml version="1.0" encoding="UTF-8"?>
<svg width="24px" height="24px" viewBox="0 0 24 24" version="1.1" xmlns="http://www.w3.org/2000/svg" xmlns:xlink="http://www.w3.org/1999/xlink">
    
    <title>Icon_Tiles</title>
    
    <defs></defs>
    <g id="Icon_Tiles" stroke="none" stroke-width="1" fill="none" fill-rule="evenodd">
        <path d="M2,2 L11,2 L11,11 L2,11 L2,2 Z M13,2 L22,2 L22,11 L13,11 L13,2 Z M16,5 L16,8 L19,8 L19,5 L16,5 Z M2,13 L11,13 L11,22 L2,22 L2,13 Z M5,16 L5,19 L8,19 L8,16 L5,16 Z M13,13 L22,13 L22,22 L13,22 L13,13 Z M16,16 L16,19 L19,19 L19,16 L16,16 Z" id="Combined-Shape" fill="#FFFFFF"></path>
    </g>
</svg>