<?xml version="1.0" encoding="UTF-8"?>
<svg width="24px" height="24px" viewBox="0 0 24 24" version="1.1" xmlns="http://www.w3.org/2000/svg" xmlns:xlink="http://www.w3.org/1999/xlink">
    
    <title>Icon_Code</title>
    
    <defs></defs>
    <g id="Icon_Code" stroke="none" stroke-width="1" fill="none" fill-rule="evenodd">
        <path d="M13.4285714,16 L13.4285714,14.6666667 L16.2857143,14.6666667 L16.2857143,12.6666667 C16.2857143,12.4329097 16.3258171,12.2085193 16.3995181,12 C16.3258171,11.7914807 16.2857143,11.5670903 16.2857143,11.3333333 L16.2857143,9.33333333 L16.2857143,7.66666667 C16.2857143,7.11438192 15.837999,6.66666667 15.2857143,6.66666667 L13.4285714,6.66666667 L13.4285714,4 L17.1428571,4 C18.2474266,4 19.1428571,4.8954305 19.1428571,6 L19.1428571,8 L20.5714286,8 L19.1428571,8 L19.1428571,9.66666667 C19.1428571,10.2189514 19.5905724,10.6666667 20.1428571,10.6666667 L22,10.6666667 L22,8 L20.5714286,8 L22,8 L22,12 L22,14.6666667 L22,13.3333333 L20.1428571,13.3333333 C19.5905724,13.3333333 19.1428571,13.7810486 19.1428571,14.3333333 L19.1428571,14.6666667 L19.1428571,16 L22,16 L22,14.6666667 L22,16 L19.1428571,16 L19.1428571,18 C19.1428571,19.1045695 18.2474266,20 17.1428571,20 L13.4285714,20 L13.4285714,16 L13.4285714,17.3333333 L15.2857143,17.3333333 C15.837999,17.3333333 16.2857143,16.8856181 16.2857143,16.3333333 L16.2857143,14.6666667 L13.4285714,14.6666667 L13.4285714,16 Z M9.14285714,14.6666667 L10.5714286,14.6666667 L10.5714286,20 L6.85714286,20 C5.75257336,20 4.85714286,19.1045695 4.85714286,18 L4.85714286,16 L4.85714286,14.3333333 C4.85714286,13.7810486 4.40942761,13.3333333 3.85714286,13.3333333 L2,13.3333333 L2,10.6666667 L2,9.33333333 L2,10.6666667 L3.85714286,10.6666667 C4.40942761,10.6666667 4.85714286,10.2189514 4.85714286,9.66666667 L4.85714286,8 L2,8 L2,9.33333333 L2,8 L4.85714286,8 L4.85714286,6 C4.85714286,4.8954305 5.75257336,4 6.85714286,4 L10.5714286,4 L10.5714286,9.33333333 L9.14285714,9.33333333 L7.71428571,9.33333333 L7.71428571,8 L7.71428571,7.66666667 C7.71428571,7.11438192 8.16200096,6.66666667 8.71428571,6.66666667 L10.5714286,6.66666667 L10.5714286,9.33333333 L9.14285714,9.33333333 L7.71428571,9.33333333 L7.71428571,11.3333333 C7.71428571,11.5670903 7.6741829,11.7914807 7.60048191,12 C7.6741829,12.2085193 7.71428571,12.4329097 7.71428571,12.6666667 L7.71428571,14.6666667 L9.14285714,14.6666667 L7.71428571,14.6666667 L7.71428571,16.3333333 C7.71428571,16.8856181 8.16200096,17.3333333 8.71428571,17.3333333 L10.5714286,17.3333333 L10.5714286,14.6666667 L9.14285714,14.6666667 Z" id="Combined-Shape" fill="#FFFFFF"></path>
    </g>
</svg>