<?xml version="1.0" encoding="UTF-8"?>
<svg width="24px" height="24px" viewBox="0 0 24 24" version="1.1" xmlns="http://www.w3.org/2000/svg" xmlns:xlink="http://www.w3.org/1999/xlink">
    
    <title>Icon_Select</title>
    
    <defs></defs>
    <g id="Icon_Select" stroke="none" stroke-width="1" fill="none" fill-rule="evenodd">
        <path d="M14,20 L10,20 L10,18 L14,18 L14,20 Z M16,20 L16,18 L18,18 L18,16 L20,16 L20,20 L16,20 Z M14,4 L14,6 L10,6 L10,4 L14,4 Z M16,4 L20,4 L20,8 L18,8 L18,6 L16,6 L16,4 Z M8,20 L4,20 L4,16 L6,16 L6,18 L8,18 L8,20 Z M8,4 L8,6 L6,6 L6,8 L4,8 L4,4 L8,4 Z M20,14 L18,14 L18,10 L20,10 L20,14 Z M4,14 L4,10 L6,10 L6,14 L4,14 Z" id="Combined-Shape" fill="#FFFFFF"></path>
    </g>
</svg>