<?xml version="1.0" encoding="UTF-8"?>
<svg width="24px" height="24px" viewBox="0 0 24 24" version="1.1" xmlns="http://www.w3.org/2000/svg" xmlns:xlink="http://www.w3.org/1999/xlink">
    
    <title>Icon_Nodes</title>
    
    <defs></defs>
    <g id="Icon_Nodes" stroke="none" stroke-width="1" fill="none" fill-rule="evenodd">
        <path d="M14.9680327,13.5538191 C15.2863444,13.3657282 15.632979,13.2204822 16,13.1260175 L16,10.8739825 C14.2747728,10.4299397 13,8.86383943 13,7 C13,4.790861 14.790861,3 17,3 C19.209139,3 21,4.790861 21,7 C21,8.86383943 19.7252272,10.4299397 18,10.8739825 L18,13.1260175 C19.7252272,13.5700603 21,15.1361606 21,17 C21,19.209139 19.209139,21 17,21 C14.790861,21 13,19.209139 13,17 C13,16.2581914 13.2019294,15.5635459 13.5538191,14.9680327 L9.03196735,10.4461809 C8.71365561,10.6342718 8.36702099,10.7795178 8,10.8739825 L8,13.1260175 C9.72522721,13.5700603 11,15.1361606 11,17 C11,19.209139 9.209139,21 7,21 C4.790861,21 3,19.209139 3,17 C3,15.1361606 4.27477279,13.5700603 6,13.1260175 L6,10.8739825 C4.27477279,10.4299397 3,8.86383943 3,7 C3,4.790861 4.790861,3 7,3 C9.209139,3 11,4.790861 11,7 C11,7.74180862 10.7980706,8.43645409 10.4461809,9.03196735 L14.9680327,13.5538191 Z M7,19 C8.1045695,19 9,18.1045695 9,17 C9,15.8954305 8.1045695,15 7,15 C5.8954305,15 5,15.8954305 5,17 C5,18.1045695 5.8954305,19 7,19 Z M7,9 C8.1045695,9 9,8.1045695 9,7 C9,5.8954305 8.1045695,5 7,5 C5.8954305,5 5,5.8954305 5,7 C5,8.1045695 5.8954305,9 7,9 Z M17,19 C18.1045695,19 19,18.1045695 19,17 C19,15.8954305 18.1045695,15 17,15 C15.8954305,15 15,15.8954305 15,17 C15,18.1045695 15.8954305,19 17,19 Z M17,9 C18.1045695,9 19,8.1045695 19,7 C19,5.8954305 18.1045695,5 17,5 C15.8954305,5 15,5.8954305 15,7 C15,8.1045695 15.8954305,9 17,9 Z" id="Combined-Shape" fill="#FFFFFF"></path>
    </g>
</svg>