<?xml version="1.0" encoding="UTF-8"?>
<svg width="24px" height="24px" viewBox="0 0 24 24" version="1.1" xmlns="http://www.w3.org/2000/svg" xmlns:xlink="http://www.w3.org/1999/xlink">
    
    <title>Icon_Add</title>
    
    <defs></defs>
    <g id="Icon_Add" stroke="none" stroke-width="1" fill="none" fill-rule="evenodd">
        <path d="M13,11 L13,8 L11,8 L11,11 L8,11 L8,13 L11,13 L11,16 L13,16 L13,13 L16,13 L16,11 L13,11 Z M6,4 L18,4 C19.1045695,4 20,4.8954305 20,6 L20,18 C20,19.1045695 19.1045695,20 18,20 L6,20 C4.8954305,20 4,19.1045695 4,18 L4,6 C4,4.8954305 4.8954305,4 6,4 Z" id="Combined-Shape" fill="#FFFFFF"></path>
    </g>
</svg>